<svg width="42" height="45" viewBox="0 0 42 45" fill="none" xmlns="http://www.w3.org/2000/svg">
<g filter="url(#filter0_d_153_24)">
<path d="M21 3.75C17.7861 3.75 14.6443 4.70305 11.972 6.48862C9.29969 8.27419 7.21689 10.8121 5.98696 13.7814C4.75704 16.7507 4.43524 20.018 5.06225 23.1702C5.68926 26.3224 7.23692 29.2179 9.50952 31.4905C11.7821 33.7631 14.6776 35.3107 17.8298 35.9378C20.982 36.5648 24.2493 36.243 27.2186 35.013C30.1879 33.7831 32.7258 31.7003 34.5114 29.028C36.297 26.3557 37.25 23.2139 37.25 20C37.2455 15.6916 35.5319 11.561 32.4855 8.51454C29.439 5.46806 25.3084 3.75455 21 3.75ZM16.8797 26.25H25.1203C24.2813 29.1156 22.875 31.6984 21 33.7328C19.125 31.6984 17.7188 29.1156 16.8797 26.25ZM16.3125 23.75C15.8979 21.2672 15.8979 18.7328 16.3125 16.25H25.6875C26.1021 18.7328 26.1021 21.2672 25.6875 23.75H16.3125ZM7.25001 20C7.24892 18.7319 7.42403 17.4699 7.77032 16.25H13.7797C13.4068 18.7361 13.4068 21.2639 13.7797 23.75H7.77032C7.42403 22.5301 7.24892 21.2681 7.25001 20ZM25.1203 13.75H16.8797C17.7188 10.8844 19.125 8.30156 21 6.26719C22.875 8.30156 24.2813 10.8844 25.1203 13.75ZM28.2203 16.25H34.2297C34.9235 18.7019 34.9235 21.2981 34.2297 23.75H28.2203C28.5932 21.2639 28.5932 18.7361 28.2203 16.25ZM33.2453 13.75H27.7094C27.0715 11.2399 26.0002 8.86038 24.5438 6.71875C26.4045 7.21878 28.1399 8.10269 29.6385 9.31364C31.1371 10.5246 32.3657 12.0358 33.2453 13.75ZM17.4563 6.71875C15.9998 8.86038 14.9285 11.2399 14.2906 13.75H8.75469C9.63427 12.0358 10.8629 10.5246 12.3615 9.31364C13.8601 8.10269 15.5956 7.21878 17.4563 6.71875ZM8.75469 26.25H14.2906C14.9285 28.7601 15.9998 31.1396 17.4563 33.2812C15.5956 32.7812 13.8601 31.8973 12.3615 30.6864C10.8629 29.4754 9.63427 27.9642 8.75469 26.25ZM24.5438 33.2812C26.0002 31.1396 27.0715 28.7601 27.7094 26.25H33.2453C32.3657 27.9642 31.1371 29.4754 29.6385 30.6864C28.1399 31.8973 26.4045 32.7812 24.5438 33.2812Z" fill="white"/>
</g>
<defs>
<filter id="filter0_d_153_24" x="-3" y="0" width="48" height="48" filterUnits="userSpaceOnUse" color-interpolation-filters="sRGB">
<feFlood flood-opacity="0" result="BackgroundImageFix"/>
<feColorMatrix in="SourceAlpha" type="matrix" values="0 0 0 0 0 0 0 0 0 0 0 0 0 0 0 0 0 0 127 0" result="hardAlpha"/>
<feOffset dy="4"/>
<feGaussianBlur stdDeviation="2"/>
<feComposite in2="hardAlpha" operator="out"/>
<feColorMatrix type="matrix" values="0 0 0 0 0 0 0 0 0 0 0 0 0 0 0 0 0 0 0.25 0"/>
<feBlend mode="normal" in2="BackgroundImageFix" result="effect1_dropShadow_153_24"/>
<feBlend mode="normal" in="SourceGraphic" in2="effect1_dropShadow_153_24" result="shape"/>
</filter>
</defs>
</svg>
